<?xml version="1.0" encoding="utf-8"?>
<!-- Generator: Adobe Illustrator 24.0.3, SVG Export Plug-In . SVG Version: 6.00 Build 0)  -->
<svg version="1.1" id="Layer_1" xmlns="http://www.w3.org/2000/svg" xmlns:xlink="http://www.w3.org/1999/xlink" x="0px" y="0px"
	 viewBox="0 0 154.7 53" style="enable-background:new 0 0 154.7 53;" xml:space="preserve">
<style type="text/css">
	.st0{fill:#D13D39;}
	.st1{fill:#1C3968;}
</style>
<g>
	<g>
		<path class="st0" d="M49.6,40.3h1.7l2.7,7.6v-7.6h1.7v12.6h-1.6l-2.8-7.9v7.9h-1.7V40.3z"/>
		<path class="st0" d="M57.8,40.3h1.8v12.6h-1.8V40.3z"/>
		<path class="st0" d="M62.8,41.9h-1.7v-1.7h5.2v1.7h-1.7v10.9h-1.8V41.9z"/>
		<path class="st0" d="M67.8,40.3h2c2.2,0,3.8,1.2,3.8,3.9v0.1c0,1.7-0.7,2.8-1.7,3.4l1.9,5.2H72l-1.7-4.6c-0.1,0-0.2,0-0.2,0h-0.5
			v4.6h-1.8V40.3z M69.9,46.7c1.2,0,2-0.7,2-2.3v-0.1c0-1.7-0.9-2.3-2-2.3h-0.3v4.7H69.9z"/>
		<path class="st0" d="M75.1,46.8v-0.5c0-4.2,1.3-6.2,3.2-6.2s3.2,1.9,3.2,6.2v0.5c0,4.2-1.3,6.2-3.2,6.2S75.1,51.1,75.1,46.8z
			 M79.8,46.8v-0.5c0-3.2-0.6-4.6-1.4-4.6s-1.4,1.3-1.4,4.6v0.5c0,3.2,0.6,4.6,1.4,4.6S79.8,50.1,79.8,46.8z"/>
		<path class="st0" d="M86.4,46.8v-0.4c0-4.3,1.6-6.2,3.6-6.2c0.6,0,0.9,0.1,1.4,0.3v1.8c-0.4-0.3-0.8-0.4-1.2-0.4
			c-1.1,0-1.9,1.2-1.9,4.4v0.4c0,3.4,0.8,4.4,2,4.4c0.4,0,0.8-0.1,1.2-0.4v1.7c-0.4,0.3-0.9,0.4-1.5,0.4
			C88,52.9,86.4,51.1,86.4,46.8z"/>
		<path class="st0" d="M92.5,46.8v-0.5c0-4.2,1.3-6.2,3.2-6.2S99,42,99,46.3v0.5c0,4.2-1.3,6.2-3.2,6.2S92.5,51.1,92.5,46.8z
			 M97.2,46.8v-0.5c0-3.2-0.6-4.6-1.4-4.6s-1.4,1.3-1.4,4.6v0.5c0,3.2,0.6,4.6,1.4,4.6S97.2,50.1,97.2,46.8z"/>
		<path class="st0" d="M100.7,40.3h1.8v10.9h2.6v1.7h-4.3V40.3z"/>
		<path class="st0" d="M106.5,40.3h1.9c2.7,0,4.3,2,4.3,6.1v0.4c0,4-1.6,6.1-4.3,6.1h-1.9V40.3z M108.5,51.2c1.3,0,2.3-1.2,2.3-4.5
			v-0.4c0-3.3-1-4.5-2.3-4.5h-0.3v9.3H108.5z"/>
		<path class="st0" d="M117.8,40.3h1.8c2.1,0,3.9,1,3.9,3.2v0.1c0,1.7-1,2.5-2,2.9c1.2,0.4,2.1,1.2,2.1,2.9v0.1
			c0,2.2-1.7,3.4-4.1,3.4h-1.8V40.3z M119.7,45.7c1.2,0,2-0.7,2-2v0c0-1.2-0.8-1.8-1.9-1.8h-0.3v3.8H119.7z M119.7,51.2
			c1.3,0,2.1-0.7,2.1-1.9v-0.1c0-1.3-0.8-2-2.1-2h-0.2v3.9H119.7z"/>
		<path class="st0" d="M125.3,40.3h2c2.2,0,3.8,1.2,3.8,3.9v0.1c0,1.7-0.7,2.8-1.7,3.4l1.9,5.2h-1.9l-1.7-4.6c-0.1,0-0.2,0-0.2,0
			H127v4.6h-1.8V40.3z M127.3,46.7c1.2,0,2-0.7,2-2.3v-0.1c0-1.7-0.9-2.3-2-2.3H127v4.7H127.3z"/>
		<path class="st0" d="M132.8,40.3h4.6v1.7h-2.9v3.7h2.6v1.7h-2.6v3.8h2.9v1.7h-4.7V40.3z"/>
		<path class="st0" d="M138.6,40.3h1.8l1.1,8.7l1.4-8.7h1.6L146,49l1.2-8.7h1.8l-2,12.6h-1.8l-1.3-8.5l-1.3,8.5h-1.8L138.6,40.3z"/>
	</g>
	<g>
		<polygon class="st1" points="23.9,16.6 16.8,19.4 15.4,24.2 7.8,24.2 22.9,9.5 18.9,5.3 0,24.2 1.6,28.5 14.1,28.5 11.9,35.4 
			18.2,35.4 20.2,28.5 24.1,28.5 25.5,24.2 21.5,24.2 		"/>
		<path class="st1" d="M61.4,5.2l-1.8-3.6C57.8,2,56.3,2.8,55,3.8C51.8,2.4,48.5,1,44.6,1c-8.1,0-12.7,5.8-12.7,12.1
			c0,3.5,1.4,7,4.8,9.9l4-4.2C39,17,38,15.1,38,12.8c0-4.1,3.2-7,8.3-7c2.1,0,4,0.5,5.8,1.1c-1.6,2.2-2.7,4.9-3.5,7.8l-4.1,13.6
			c-1.9,6-4.8,9.7-8.1,9.7c-1.9,0-3.7-1.2-3.7-3.6c0-1.5,0.7-3.2,2.1-5.3l-5.6-2.8c-1.8,2.4-2.6,4.9-2.6,7.3c0,4.8,3.6,9.1,10,9.1
			c6.1,0,11-3.8,14-13.4L55,14.6C56.6,9.5,58.9,6.5,61.4,5.2z"/>
		<path class="st1" d="M150.4,23.5c-1.6,3.2-3.1,5.7-5.4,7.3c0.3-1,0.5-2,0.5-3.1c0-5-3.8-9.2-5.4-14.4l-4.9-1.1
			c-1.1,3.3-3,7.7-4.5,10.7c-1.5-0.3-3.9,1-3.9,4.5c0,0.3,0,0.6,0.1,0.9c-1.5,2-2.9,3.2-4.3,3.2c-1.9,0-2.7-2-3-3.8
			c3.1-1.4,6.9-4.6,6.9-8.7c0-3.3-2.2-5.5-5.7-5.5c-2.3,0-4.7,1.3-6.6,3.4l3.4-11h-6.2l-5.4,17.7c-0.1,0-0.1,0-0.2,0
			c-2.6,5.2-6.6,8.1-10.6,8.1c-3.5,0-5.6-2.2-5.6-5.6c0-4.1,3-8,6.1-8c0.5,0,0.9,0.1,1.3,0.3c-0.8,0.6-1.4,1.6-1.4,2.7
			c0,1.9,1.5,3.4,3.4,3.4c2.6,0,4-2.4,4-4.6c0-3-2.4-6.3-7.7-6.3c-6.9,0-11.4,5.6-12.2,11.3c-2.1,4-4.3,6.6-6,6.6
			c-1.3,0-1.2-1.4-0.8-2.8l4.5-14.8h-6.2l-1.1,3.4c-1.1-2.4-3.2-3.8-5.8-3.8C61,13.5,56,21,56,28c0,4.9,2.8,7.7,7.1,7.7
			c2.7,0,5.1-1.3,7-3.4c0.4,1.9,1.6,3.4,4.4,3.4c3.4,0,6.4-2.4,8.9-6.1c1.2,3.9,4.7,6.2,9.8,6.2c4.2,0,7.6-1.7,10.3-4.3l-1.2,3.8
			h6.2l4.3-14c1.5-1.9,3.2-2.8,4.7-2.8c1.6,0,2.4,1.1,2.4,2.3c0,2.3-2.8,4.2-6.4,5.3c1.2,5.6,3.2,9.5,7.4,9.5c2.7,0,5.1-1.6,7.2-4.2
			c1.7,2.5,4.9,4.4,9,4.4c8.7,0,12.9-4.9,15.8-11.2C152.4,24.2,151.2,23.5,150.4,23.5z M65.6,30.7c-1.9,0-3-1.3-3-3.6
			c0-3.7,3-7.9,5.9-7.9c1.9,0,3.1,1.3,3.1,3.5C71.5,26.4,68.6,30.7,65.6,30.7z M135.5,31.8c-1.8,0-3.1-1.1-3.5-2.5
			c1-0.6,1.7-1.7,1.7-3c0-0.8-0.3-1.6-0.8-2.2c1.1-2,2.1-4.2,3-6.4c1.2,3.6,3.3,6.9,3.3,9.9C139.2,30.2,137.6,31.8,135.5,31.8z"/>
	</g>
</g>
</svg>
